<svg width="53" height="54" viewBox="0 0 53 54" fill="none" xmlns="http://www.w3.org/2000/svg">
<path d="M26.0583 27.9879C29.0708 27.9879 31.5129 25.5458 31.5129 22.5334C31.5129 19.5209 29.0708 17.0788 26.0583 17.0788C23.0459 17.0788 20.6038 19.5209 20.6038 22.5334C20.6038 25.5458 23.0459 27.9879 26.0583 27.9879Z" stroke="black" stroke-width="1.5" stroke-linecap="round" stroke-linejoin="round"/>
<path d="M15.0608 43.0558V39.942C15.0608 36.3203 17.9979 33.4053 21.5975 33.4053H31.3804C35.0021 33.4053 37.9171 36.3424 37.9171 39.942V43.0558" stroke="black" stroke-width="1.5" stroke-linecap="round" stroke-linejoin="round"/>
<path d="M26.5 47.3835C37.7816 47.3835 46.9271 38.2379 46.9271 26.9564C46.9271 15.6748 37.7816 6.5293 26.5 6.5293C15.2184 6.5293 6.07292 15.6748 6.07292 26.9564C6.07292 38.2379 15.2184 47.3835 26.5 47.3835Z" stroke="black" stroke-width="1.5" stroke-linecap="round" stroke-linejoin="round"/>
</svg>
